<?xml version="1.0" encoding="UTF-8" standalone="no"?><!DOCTYPE svg PUBLIC "-//W3C//DTD SVG 1.1//EN" "http://www.w3.org/Graphics/SVG/1.1/DTD/svg11.dtd"><svg width="100%" height="100%" viewBox="0 0 513 512" version="1.1" xmlns="http://www.w3.org/2000/svg" xmlns:xlink="http://www.w3.org/1999/xlink" xml:space="preserve" xmlns:serif="http://www.serif.com/" style="fill-rule:evenodd;clip-rule:evenodd;stroke-linejoin:round;stroke-miterlimit:1.41421;"><rect id="Info" x="0.828" y="0" width="512" height="512" style="fill:none;"/><path d="M256.828,76.586c-99.081,0 -179.414,80.362 -179.414,179.414c0,99.11 80.333,179.414 179.414,179.414c99.081,0 179.414,-80.304 179.414,-179.414c0,-99.052 -80.333,-179.414 -179.414,-179.414Zm0,79.579c16.781,0 30.385,13.603 30.385,30.384c0,16.781 -13.604,30.385 -30.385,30.385c-16.781,0 -30.385,-13.604 -30.385,-30.385c0,-16.781 13.604,-30.384 30.385,-30.384Zm40.513,183.754c0,4.795 -3.887,8.682 -8.681,8.682l-63.663,0c-4.795,0 -8.682,-3.887 -8.682,-8.682l0,-17.362c0,-4.794 3.887,-8.681 8.682,-8.681l8.681,0l0,-46.301l-8.681,0c-4.795,0 -8.682,-3.887 -8.682,-8.681l0,-17.363c0,-4.794 3.887,-8.681 8.682,-8.681l46.3,0c4.794,0 8.681,3.887 8.681,8.681l0,72.345l8.682,0c4.794,0 8.681,3.887 8.681,8.681l0,17.362Z" style="fill:#999;fill-rule:nonzero;"/></svg>