<?xml version="1.0" encoding="UTF-8" standalone="no"?><!DOCTYPE svg PUBLIC "-//W3C//DTD SVG 1.1//EN" "http://www.w3.org/Graphics/SVG/1.1/DTD/svg11.dtd"><svg width="100%" height="100%" viewBox="0 0 513 512" version="1.1" xmlns="http://www.w3.org/2000/svg" xmlns:xlink="http://www.w3.org/1999/xlink" xml:space="preserve" xmlns:serif="http://www.serif.com/" style="fill-rule:evenodd;clip-rule:evenodd;stroke-linejoin:round;stroke-miterlimit:1.41421;"><rect id="_--Mark" serif:id="? Mark" x="0.871" y="0" width="512" height="512" style="fill:none;"/><path d="M257.207,73.156c-57.009,0 -93.935,23.357 -122.925,65.014c-5.259,7.556 -3.637,17.917 3.699,23.479l30.81,23.362c7.409,5.618 17.951,4.304 23.751,-2.962c17.891,-22.414 31.162,-35.319 59.108,-35.319c21.973,0 49.151,14.142 49.151,35.449c0,16.107 -13.297,24.379 -34.993,36.543c-25.3,14.185 -58.781,31.838 -58.781,75.998l0,6.991c0,9.467 7.675,17.142 17.142,17.142l51.761,0c9.468,0 17.142,-7.675 17.142,-17.142l0,-4.123c0,-30.612 89.471,-31.887 89.471,-114.726c0.001,-62.384 -64.711,-109.706 -125.336,-109.706Zm-7.157,266.737c-27.281,0 -49.476,22.195 -49.476,49.476c0,27.281 22.195,49.475 49.476,49.475c27.281,0 49.476,-22.194 49.476,-49.475c0,-27.281 -22.195,-49.476 -49.476,-49.476Z" style="fill:#999;fill-rule:nonzero;"/></svg>