<?xml version="1.0" encoding="UTF-8" standalone="no"?><!DOCTYPE svg PUBLIC "-//W3C//DTD SVG 1.1//EN" "http://www.w3.org/Graphics/SVG/1.1/DTD/svg11.dtd"><svg width="100%" height="100%" viewBox="0 0 513 512" version="1.1" xmlns="http://www.w3.org/2000/svg" xmlns:xlink="http://www.w3.org/1999/xlink" xml:space="preserve" xmlns:serif="http://www.serif.com/" style="fill-rule:evenodd;clip-rule:evenodd;stroke-linejoin:round;stroke-miterlimit:1.41421;"><rect id="X-Mark" serif:id="X Mark" x="0.957" y="0" width="512" height="512" style="fill:none;"/><path d="M321.745,256l97.172,-97.099c11.924,-11.916 11.924,-31.235 0,-43.16l-21.596,-21.58c-11.925,-11.915 -31.258,-11.915 -43.192,0l-97.172,97.1l-97.172,-97.1c-11.924,-11.915 -31.258,-11.915 -43.192,0l-21.595,21.58c-11.925,11.916 -11.925,31.234 0,43.16l97.171,97.099l-97.171,97.099c-11.925,11.916 -11.925,31.235 0,43.16l21.595,21.58c11.925,11.915 31.268,11.915 43.192,0l97.172,-97.1l97.172,97.1c11.924,11.915 31.267,11.915 43.192,0l21.596,-21.58c11.924,-11.916 11.924,-31.234 0,-43.16l-97.172,-97.099Z" style="fill:#999;fill-rule:nonzero;"/></svg>